<svg width="32px" height="32px" viewBox="0 0 24 24" fill="none" xmlns="http://www.w3.org/2000/svg">
  <path d="M18.67 18.67L20.89 17.56V14.78
           M14.22 9.78L12 10.89L14.22 9.78
           M12 10.89L9.77998 9.78L12 10.89
           M12 10.89V13.67
           M20.89 6.44L18.67 7.55L20.89 6.44
           M20.89 6.44L18.67 5.33L20.89 6.44
           M20.89 6.44V9.22
           M14.22 3.11L12 2L9.77998 3.11H14.22
           M3.10999 6.44L5.32999 5.33L3.10999 6.44
           M3.10999 6.44L5.32999 7.55L3.10999 6.44
           M3.10999 6.44V9.22
           M12 22L9.77998 20.89L12 22
           M12 22L14.22 20.89L12 22
           M12 22V19.22
           M5.32999 18.67L3.10999 17.56V14.78L5.32999 18.67
           M18.67 18.67L20.89 17.56V14.78L18.67 18.67Z"
        stroke="#ffffff" stroke-width="1.5" stroke-linecap="round" stroke-linejoin="round"/>
</svg>
