<svg viewBox="0 0 100 100" xmlns="http://www.w3.org/2000/svg">
<path d="M82.7,50.8c3.7-3.2,6.1-7.9,6.1-13.2c0-9.6-7.9-17.5-17.5-17.5c-9.6,0-17.5,7.8-17.5,17.5c0,5.3,2.4,10,6.1,13.2c-2.8,1-5.4,2.6-7.6,4.6c-2.6-5-7-8.9-12.3-10.8c3.7-3.2,6.1-7.9,6.1-13.2c0-9.6-7.8-17.5-17.5-17.5s-17.5,7.8-17.5,17.5c0,5.3,2.4,10,6.1,13.2C8.7,47.7,2.5,56,2.5,65.7v10.9c0,1.8,1.5,3.3,3.3,3.3h39.3v3c0,1.8,1.5,3.3,3.3,3.3h45.8c1.8,0,3.3-1.5,3.3-3.3V71.9C97.5,62.2,91.3,54,82.7,50.8z M71.3,26.6c6,0,11,4.9,11,11s-4.9,11-11,11c-6,0-11-4.9-11-11S65.3,26.6,71.3,26.6z M28.7,20.4c6,0,11,4.9,11,11s-4.9,11-11,11c-6,0-11-4.9-11-11S22.7,20.4,28.7,20.4z M9,73.4v-7.6c0-8.8,7.2-16,16-16h7.3c7.4,0,13.5,5,15.4,11.8c-1.6,3.1-2.6,6.7-2.6,10.5v1.4H9z M91,79.6H51.7v-7.6c0-8.8,7.2-16,16-16H75c8.8,0,16,7.2,16,16V79.6z"/>
</svg>